# xmcd
#
# Track frame offsets:
#	150
#	16968
#	35430
#	52819
#	69493
#	86113
#	98024
#	114729
#	128617
#	146969
#	160684
#	178796
#	194392
#	210886
#	222043
#	237283
#	249652
#	264637
#	279788
#	304967
#	306701
#	312714
#	326941
#	340186
#	356673
#	357260
#
# Disc length: 4770 seconds
#
# Revision: 1
# Processed by: cddbd v1.5.2PL0 Copyright (c) Steve Scherf et al.
# Submitted via: audiograbber 1.83.01
#
DISCID=8f12a01a
DTITLE=Country Hotdisc - Country Hotdisc 126
DYEAR=2009
DGENRE=Country
TTITLE0=Sling Shot Buddies  - Nick and Noah Murray
TTITLE1=That´s The Way It Goes  - Casey Dilworth
TTITLE2=Kitchen Table  - Travis Logan
TTITLE3=Friday At Last  - Susan Hickman
TTITLE4=Remember Me  - Nicki Gillis
TTITLE5=Behind The Wall  - Dave Aspen
TTITLE6=Dylan And Old John Prine  - Chris Mclernon
TTITLE7=Dip Me In Beer  - Jeff Griffith
TTITLE8=Succeed  - Peter Dula and The Rowers With Billy Ryan
TTITLE9=The Cheating Kind  - Aubrey Lovejoy
TTITLE10=Honkytonks And Heartaches - Gord Bamford 
TTITLE11=Tired Of Being Sorry  - Jason Lee Wilson
TTITLE12=You Only Call Me When You´re Drunk - The Bellhops
TTITLE13=The Highway Men  - Rob Ryan
TTITLE14=Seven Vern Gosdins Ago  - Darren Kozelsky
TTITLE15=Rescue Me - Tracee Davidson and The Phil Mithell Band
TTITLE16=Jacksonville  - Donna Frost
TTITLE17=Old Forgotten Dad  - J P Mayton
TTITLE18=Stella Parton Interview By Stuart Cameron  - Stella Parton And Stuart 
TTITLE18=Cameron
TTITLE19=Stella Parton Interview By Stuart Cameron End Tag  - Stella Parton And
TTITLE19=Stuart Cameron
TTITLE20=I Want To Hold You In My Dreams  - Stella Parton
TTITLE21=Thief In My Bedroom - David Allan Coe
TTITLE22=I´d Realy Love To See You Tonight  - Dan Seals
TTITLE23=The Old Man - The Fureys and Dave Arthur
TTITLE24=Generic Liners - Nicki Gillis
TTITLE25=Generic Liners  - Nicki Gillis
EXTD=
EXTT0=
EXTT1=
EXTT2=
EXTT3=
EXTT4=
EXTT5=
EXTT6=
EXTT7=
EXTT8=
EXTT9=
EXTT10=
EXTT11=
EXTT12=
EXTT13=
EXTT14=
EXTT15=
EXTT16=
EXTT17=
EXTT18=
EXTT19=
EXTT20=
EXTT21=
EXTT22=
EXTT23=
EXTT24=
EXTT25=
PLAYORDER=
